<?xml version="1.0" encoding="UTF-8"?>
<!DOCTYPE svg PUBLIC "-//W3C//DTD SVG 1.1//EN" "http://www.w3.org/Graphics/SVG/1.1/DTD/svg11.dtd">
<!-- Creator: CorelDRAW X6 -->
<svg xmlns="http://www.w3.org/2000/svg" xml:space="preserve" width="154.126mm" height="69.711mm" version="1.1" style="shape-rendering:geometricPrecision; text-rendering:geometricPrecision; image-rendering:optimizeQuality; fill-rule:evenodd; clip-rule:evenodd"
viewBox="0 0 16697 7552"
 xmlns:xlink="http://www.w3.org/1999/xlink">
 <defs>
  <style type="text/css">
   <![CDATA[
    .str0 {stroke:#FFF383;stroke-width:81.2479;stroke-linejoin:bevel;stroke-dasharray:81.247927 162.495853}
    .fil1 {fill:#8B3502}
    .fil3 {fill:#FF4240}
    .fil5 {fill:#FFF7B2;fill-rule:nonzero}
    .fil4 {fill:#7A2B02;fill-rule:nonzero}
    .fil0 {fill:url(#id0)}
    .fil2 {fill:url(#id1)}
   ]]>
  </style>
  <linearGradient id="id0" gradientUnits="userSpaceOnUse" x1="15796.4" y1="421.958" x2="14648.8" y2="1972.62">
   <stop offset="0" style="stop-color:#FF4240"/>
   <stop offset="1" style="stop-color:#D60808"/>
  </linearGradient>
  <linearGradient id="id1" gradientUnits="userSpaceOnUse" xlink:href="#id0" x1="1881.54" y1="6710.33" x2="1019.54" y2="5817.24">
  </linearGradient>
 </defs>
 <g id="Слой_x0020_1">
  <metadata id="CorelCorpID_0Corel-Layer"/>
  <g id="_213674624">
   <g>
    <polygon class="fil0" points="13749,0 13986,2395 16697,2327 15786,1649 16589,188 "/>
    <polygon class="fil1" points="13749,0 13986,2395 15028,3512 15927,571 "/>
    <polygon class="fil1" points="1556,3894 889,1062 15875,3886 15151,6879 "/>
    <polygon class="fil2" points="2901,7491 2277,4976 0,5413 1187,6092 140,7552 "/>
    <polygon class="fil1" points="2901,7491 2277,4976 1146,4272 1870,6807 "/>
    <polygon class="fil3" points="1870,6807 1146,4272 15875,3886 15151,6879 "/>
    <polygon class="fil3 str0" points="2187,6530 1553,4500 15513,4151 14827,6668 "/>
    <polygon class="fil3" points="15028,3512 15936,543 889,1062 1556,3894 "/>
    <polygon class="fil3 str0" points="14879,3247 15423,842 1237,1230 1887,3615 "/>
   </g>
   <g>
    <path class="fil4" d="M2672 2973l-19 -601 -238 8 -6 -193 696 -22 6 193 -238 7 19 601 -220 7zm577 -18l-25 -794 638 -20 6 187 -421 14 4 120 381 -12 5 173 -381 12 4 126 426 -14 6 188 -643 20zm1161 -21c-115,4 -213,-32 -295,-108 -81,-76 -124,-173 -127,-292 -4,-116 33,-215 110,-297 77,-82 175,-125 295,-128 141,-5 254,48 338,157l-157 130c-51,-60 -110,-89 -177,-87 -55,2 -100,24 -134,66 -34,42 -51,93 -49,152 2,61 22,111 58,150 37,39 83,58 138,56 39,-1 71,-10 98,-27 27,-17 53,-42 78,-75l169 113c-39,58 -86,103 -140,137 -55,33 -123,51 -205,53zm661 -37l-19 -600 -238 7 -6 -193 696 -21 6 192 -238 8 19 600 -220 7zm891 -28l-25 -793 571 -18 6 193 -351 11 19 600 -220 7zm1388 -148c-79,83 -180,126 -302,130 -121,4 -224,-33 -308,-110 -83,-77 -127,-173 -131,-289 -3,-115 35,-214 114,-296 79,-83 180,-126 302,-130 121,-4 224,33 308,110 84,77 127,173 131,289 3,115 -34,214 -114,296zm-306 -68c60,-2 108,-25 144,-67 36,-43 53,-94 51,-154 -1,-59 -22,-109 -62,-149 -40,-41 -89,-61 -148,-59 -59,2 -107,24 -143,67 -36,43 -53,94 -51,154 2,59 22,109 62,149 39,41 88,61 147,59zm763 158l-19 -600 -238 7 -6 -193 696 -21 6 192 -238 8 19 600 -220 7zm1278 -144c-79,82 -180,126 -301,129 -122,4 -225,-32 -308,-109 -84,-78 -128,-174 -131,-290 -4,-115 34,-213 113,-296 80,-83 180,-126 302,-130 122,-4 224,33 308,110 84,77 128,174 131,289 4,115 -34,214 -114,297zm-305 -69c59,-2 107,-24 143,-67 37,-43 54,-94 52,-153 -2,-59 -23,-109 -63,-150 -40,-41 -89,-60 -148,-58 -59,2 -106,24 -143,67 -36,42 -53,94 -51,153 2,59 23,109 62,150 40,40 89,60 148,58zm569 165l-25 -794 407 -12c96,-3 169,18 218,64 36,33 54,76 56,129 2,82 -37,143 -117,181 52,15 91,37 119,67 28,30 43,72 44,124 3,68 -22,122 -74,163 -52,40 -125,62 -219,65l-409 13zm208 -184l170 -5c71,-2 105,-28 104,-78 -2,-48 -39,-70 -110,-68l-168 5 4 146zm-9 -300l138 -4c70,-3 104,-28 102,-75 -1,-45 -35,-67 -102,-65l-142 4 4 140zm634 458l-25 -794 220 -7 9 297 282 -9 -9 -297 220 -7 25 794 -220 7 -10 -302 -282 9 10 302 -220 7zm1586 -155c-79,83 -180,126 -301,130 -122,4 -225,-33 -309,-110 -83,-77 -127,-173 -131,-289 -3,-115 35,-214 114,-296 80,-83 180,-126 302,-130 122,-4 224,33 308,110 84,77 127,173 131,289 4,115 -34,214 -114,296zm-305 -68c59,-2 107,-25 143,-67 36,-43 53,-94 52,-154 -2,-59 -23,-109 -63,-149 -40,-41 -89,-61 -148,-59 -59,2 -107,24 -143,67 -36,43 -53,94 -51,154 2,59 22,109 62,149 39,41 89,61 148,59zm951 168c-115,4 -213,-32 -294,-108 -82,-76 -124,-173 -128,-291 -4,-117 33,-216 110,-298 78,-82 176,-124 295,-128 142,-5 254,48 339,157l-157 130c-51,-60 -110,-89 -178,-86 -55,1 -100,23 -134,65 -34,42 -50,93 -48,152 2,61 21,111 58,150 36,39 82,58 138,56 38,-1 71,-10 97,-27 27,-17 53,-42 79,-75l169 113c-40,58 -87,104 -141,137 -54,33 -123,51 -205,53zm662 -36l-19 -601 -238 7 -6 -192 695 -22 7 192 -238 8 18 601 -219 7zm576 -19l-25 -793 218 -7 14 447 293 -456 205 -7 25 793 -217 7 -14 -446 -293 456 -206 6z"/>
    <path class="fil5" d="M2594 2868l-19 -600 -238 7 -6 -193 696 -21 6 192 -238 8 19 600 -220 7zm577 -18l-25 -793 638 -20 6 187 -420 13 4 120 380 -12 6 174 -381 12 4 125 426 -13 6 187 -644 20zm1161 -20c-114,3 -213,-33 -294,-109 -81,-75 -124,-173 -128,-291 -3,-117 33,-216 111,-297 77,-82 175,-125 294,-129 142,-4 255,48 339,157l-157 130c-51,-60 -110,-88 -177,-86 -56,2 -100,23 -135,65 -34,42 -50,93 -48,153 2,60 21,110 58,149 37,40 83,58 138,57 38,-1 71,-11 98,-28 26,-17 52,-42 78,-74l169 112c-40,58 -87,104 -141,137 -54,33 -122,51 -205,54zm662 -37l-19 -601 -238 8 -6 -193 696 -22 6 193 -238 7 19 601 -220 7zm891 -28l-25 -794 571 -18 6 193 -351 11 19 601 -220 7zm1388 -148c-80,82 -180,126 -302,130 -122,3 -224,-33 -308,-110 -84,-78 -127,-174 -131,-290 -4,-114 34,-213 114,-296 79,-83 180,-126 301,-130 122,-4 225,33 308,110 84,78 128,174 131,289 4,115 -34,214 -113,297zm-306 -69c60,-2 108,-24 144,-67 36,-43 53,-94 51,-153 -2,-59 -23,-109 -62,-150 -40,-41 -90,-60 -149,-58 -59,2 -106,24 -142,67 -36,42 -53,94 -52,153 2,59 23,109 62,150 40,41 89,60 148,58zm763 159l-19 -601 -238 8 -6 -193 696 -22 6 193 -238 7 19 601 -220 7zm1278 -145c-79,83 -180,126 -302,130 -121,4 -224,-33 -308,-110 -83,-77 -127,-174 -131,-289 -3,-115 35,-214 114,-297 79,-82 180,-125 302,-129 121,-4 224,33 308,110 83,77 127,173 131,289 3,115 -35,214 -114,296zm-306 -68c60,-2 108,-25 144,-67 36,-43 53,-94 51,-154 -1,-59 -22,-109 -62,-150 -40,-40 -89,-60 -148,-58 -59,2 -107,24 -143,67 -36,43 -53,94 -51,154 2,59 22,108 62,149 39,41 88,60 147,59zm569 164l-25 -793 407 -13c97,-3 170,19 219,65 35,33 54,76 55,128 3,83 -36,143 -117,181 52,15 92,38 120,68 28,30 42,71 44,123 2,68 -23,123 -74,163 -52,41 -125,62 -219,65l-410 13zm209 -183l170 -6c70,-2 105,-28 103,-78 -1,-47 -38,-70 -110,-68l-168 6 5 146zm-9 -301l138 -4c69,-2 103,-27 102,-75 -1,-45 -35,-67 -102,-65l-143 5 5 139zm634 458l-25 -793 219 -7 10 297 282 -9 -9 -297 220 -7 25 793 -220 7 -10 -301 -282 9 9 301 -219 7zm1586 -154c-80,82 -180,126 -302,130 -121,3 -224,-33 -308,-110 -84,-78 -127,-174 -131,-290 -4,-114 34,-213 114,-296 79,-83 180,-126 302,-130 121,-4 224,33 308,110 83,77 127,174 131,289 3,115 -35,214 -114,297zm-306 -69c60,-2 108,-24 144,-67 36,-43 53,-94 51,-153 -2,-59 -22,-109 -62,-150 -40,-41 -90,-60 -149,-58 -58,2 -106,24 -142,67 -36,42 -53,94 -51,153 1,59 22,109 62,150 39,41 88,60 147,58zm952 169c-115,3 -213,-33 -295,-108 -81,-76 -124,-173 -127,-292 -4,-116 33,-215 110,-297 77,-82 175,-125 295,-129 141,-4 254,48 338,158l-157 129c-51,-59 -110,-88 -177,-86 -55,2 -100,24 -134,65 -34,42 -51,93 -49,153 2,60 22,110 58,150 37,39 83,58 138,56 39,-1 71,-10 98,-28 27,-17 53,-42 78,-74l169 113c-39,58 -86,103 -140,136 -55,33 -123,51 -205,54zm661 -37l-19 -601 -238 8 -6 -193 696 -22 6 193 -238 7 19 601 -220 7zm577 -18l-25 -794 218 -6 14 446 293 -456 205 -6 25 793 -218 7 -14 -447 -293 456 -205 7z"/>
   </g>
   <g>
    <path class="fil4" d="M3475 5993l0 -794 220 0 0 323 273 -323 261 0 -301 342 311 452 -264 0 -200 -295 -80 90 0 205 -220 0zm1153 0l0 -794 220 0 0 298 282 0 0 -298 220 0 0 794 -220 0 0 -301 -282 0 0 301 -220 0zm1591 -104c-82,80 -184,120 -306,120 -122,0 -223,-40 -305,-119 -81,-80 -121,-178 -121,-294 0,-115 41,-212 123,-292 82,-80 184,-120 305,-120 122,0 223,39 305,119 81,80 122,178 122,293 0,115 -41,213 -123,293zm-304 -78c60,0 109,-21 146,-63 37,-41 56,-92 56,-152 0,-59 -19,-109 -58,-151 -38,-42 -87,-63 -146,-63 -59,0 -107,21 -145,62 -37,42 -56,93 -56,152 0,59 19,110 58,152 38,42 86,63 145,63zm564 182l0 -794 407 0c97,0 169,24 217,72 34,34 51,77 51,130 0,83 -41,142 -123,177 52,17 91,41 118,72 26,31 40,72 40,124 0,68 -27,122 -80,161 -53,39 -126,58 -221,58l-409 0zm214 -177l170 0c71,0 106,-25 106,-74 0,-48 -36,-72 -108,-72l-168 0 0 146zm0 -300l139 0c69,0 104,-24 104,-72 0,-45 -33,-68 -100,-68l-143 0 0 140zm1324 373c-82,80 -184,120 -305,120 -122,0 -224,-40 -305,-119 -81,-80 -122,-178 -122,-294 0,-115 41,-212 123,-292 82,-80 184,-120 306,-120 122,0 223,39 304,119 82,80 122,178 122,293 0,115 -41,213 -123,293zm-303 -78c60,0 108,-21 146,-63 37,-41 56,-92 56,-152 0,-59 -20,-109 -58,-151 -39,-42 -87,-63 -146,-63 -59,0 -108,21 -145,62 -37,42 -56,93 -56,152 0,59 19,110 57,152 38,42 87,63 146,63zm563 182l0 -794 233 0 189 308 190 -308 232 0 0 794 -219 0 0 -456 -203 311 -4 0 -202 -308 0 453 -216 0zm1194 12c-68,0 -131,-18 -191,-54l86 -158c27,18 57,27 90,27 26,0 49,-12 69,-34l-311 -587 245 0 180 374 171 -374 239 0 -310 606c-36,72 -75,123 -116,154 -41,30 -92,46 -152,46zm985 -12l0 -794 572 0 0 193 -352 0 0 601 -220 0zm1392 -104c-82,80 -184,120 -306,120 -121,0 -223,-40 -304,-119 -81,-80 -122,-178 -122,-294 0,-115 41,-212 123,-292 82,-80 184,-120 306,-120 121,0 223,39 304,119 81,80 122,178 122,293 0,115 -41,213 -123,293zm-303 -78c59,0 108,-21 145,-63 38,-41 57,-92 57,-152 0,-59 -20,-109 -58,-151 -39,-42 -88,-63 -147,-63 -59,0 -107,21 -144,62 -38,42 -56,93 -56,152 0,59 19,110 57,152 38,42 87,63 146,63zm504 341l0 -351 71 0c28,-78 49,-158 61,-242 13,-84 19,-197 19,-339l0 -21 605 0 0 602 89 0 -25 351 -186 0 0 -159 -422 0 -14 159 -198 0zm301 -351l235 0 0 -409 -173 0 0 8c0,142 -21,276 -62,401zm840 204c-67,0 -131,-18 -190,-54l86 -158c27,18 57,27 89,27 27,0 50,-12 70,-34l-311 -587 245 0 180 374 170 -374 240 0 -310 606c-36,72 -75,123 -116,154 -41,30 -92,46 -153,46z"/>
    <path class="fil5" d="M3337 5905l0 -794 220 0 0 322 273 -322 261 0 -300 341 310 453 -264 0 -199 -295 -81 90 0 205 -220 0zm1153 0l0 -794 220 0 0 297 283 0 0 -297 220 0 0 794 -220 0 0 -302 -283 0 0 302 -220 0zm1591 -104c-82,80 -184,120 -306,120 -121,0 -223,-40 -304,-120 -81,-80 -122,-177 -122,-293 0,-115 41,-213 123,-293 82,-80 184,-120 306,-120 121,0 223,40 304,120 81,80 122,177 122,293 0,115 -41,212 -123,293zm-303 -79c59,0 108,-21 145,-62 38,-42 56,-92 56,-152 0,-59 -19,-110 -57,-151 -39,-42 -88,-63 -147,-63 -59,0 -107,20 -144,62 -38,42 -56,92 -56,152 0,59 19,109 57,151 38,42 87,63 146,63zm563 183l0 -794 407 0c97,0 169,24 217,71 34,34 51,78 51,131 0,82 -41,141 -122,177 51,16 90,40 117,71 27,31 40,73 40,125 0,68 -26,122 -79,160 -53,39 -127,59 -221,59l-410 0zm215 -177l170 0c70,0 105,-25 105,-75 0,-48 -36,-71 -108,-71l-167 0 0 146zm0 -301l138 0c69,0 104,-23 104,-71 0,-45 -33,-68 -100,-68l-142 0 0 139zm1324 374c-82,80 -184,120 -306,120 -122,0 -223,-40 -305,-120 -81,-80 -121,-177 -121,-293 0,-115 41,-213 123,-293 82,-80 184,-120 305,-120 122,0 223,40 305,120 81,80 122,177 122,293 0,115 -41,212 -123,293zm-304 -79c60,0 109,-21 146,-62 37,-42 56,-92 56,-152 0,-59 -19,-110 -58,-151 -38,-42 -87,-63 -146,-63 -59,0 -107,20 -145,62 -37,42 -56,92 -56,152 0,59 19,109 58,151 38,42 86,63 145,63zm564 183l0 -794 232 0 190 307 189 -307 233 0 0 794 -219 0 0 -456 -203 311 -5 0 -202 -309 0 454 -215 0zm1193 11c-67,0 -131,-18 -191,-53l87 -159c27,18 57,27 89,27 27,0 50,-11 69,-34l-310 -586 245 0 180 373 170 -373 239 0 -309 606c-37,71 -75,123 -117,153 -41,31 -92,46 -152,46zm985 -11l0 -794 572 0 0 193 -352 0 0 601 -220 0zm1392 -104c-82,80 -183,120 -305,120 -122,0 -223,-40 -305,-120 -81,-80 -122,-177 -122,-293 0,-115 41,-213 123,-293 82,-80 184,-120 306,-120 122,0 223,40 305,120 81,80 122,177 122,293 0,115 -42,212 -124,293zm-303 -79c60,0 108,-21 146,-62 37,-42 56,-92 56,-152 0,-59 -19,-110 -58,-151 -38,-42 -87,-63 -146,-63 -59,0 -107,20 -145,62 -37,42 -56,92 -56,152 0,59 19,109 57,151 39,42 87,63 146,63zm505 342l0 -352 70 0c29,-77 49,-158 62,-242 12,-83 19,-196 19,-339l0 -20 604 0 0 601 90 0 -25 352 -186 0 0 -159 -422 0 -15 159 -197 0zm300 -352l235 0 0 -408 -172 0 0 8c0,142 -21,275 -63,400zm841 204c-68,0 -131,-18 -191,-53l86 -159c27,18 57,27 90,27 26,0 49,-11 69,-34l-311 -586 245 0 181 373 170 -373 239 0 -310 606c-36,71 -75,123 -116,153 -41,31 -92,46 -152,46z"/>
   </g>
  </g>
 </g>
</svg>
